<svg xmlns="http://www.w3.org/2000/svg" xmlns:xlink="http://www.w3.org/1999/xlink" width="500" zoomAndPan="magnify" viewBox="0 0 375 374.999991" height="500" preserveAspectRatio="xMidYMid meet" version="1.0"><defs><g/><clipPath id="74f214f4d0"><path d="M 117 24.707031 L 252 24.707031 L 252 164.207031 L 117 164.207031 Z M 117 24.707031 " clip-rule="nonzero"/></clipPath><clipPath id="238e6d35fd"><path d="M 97.011719 83 L 113 83 L 113 132 L 97.011719 132 Z M 97.011719 83 " clip-rule="nonzero"/></clipPath><clipPath id="70495219fd"><path d="M 257 83 L 272.511719 83 L 272.511719 132 L 257 132 Z M 257 83 " clip-rule="nonzero"/></clipPath></defs><g clip-path="url(#74f214f4d0)"><path fill="#ffffff" d="M 221.78125 164.394531 L 147.578125 164.394531 C 131.234375 164.394531 117.976562 151.136719 117.976562 134.898438 L 117.976562 86.796875 C 117.976562 70.457031 131.234375 57.199219 147.578125 57.199219 L 181.492188 57.199219 L 181.597656 45.890625 C 177.175781 44.554688 173.886719 40.445312 173.886719 35.511719 C 173.886719 29.550781 178.820312 24.71875 184.78125 24.71875 C 190.742188 24.71875 195.675781 29.550781 195.675781 35.511719 C 195.675781 40.445312 192.285156 44.660156 187.761719 45.996094 L 187.660156 57.199219 L 221.78125 57.199219 C 238.019531 57.199219 251.277344 70.457031 251.277344 86.796875 L 251.277344 135 C 251.277344 151.238281 238.019531 164.394531 221.78125 164.394531 Z M 156.828125 117.734375 C 148.089844 117.734375 141.203125 110.847656 141.203125 102.214844 C 141.203125 93.476562 148.089844 86.59375 156.828125 86.59375 C 165.5625 86.59375 172.347656 93.476562 172.347656 102.214844 C 172.347656 110.847656 165.5625 117.734375 156.828125 117.734375 Z M 156.828125 92.757812 C 151.480469 92.757812 147.371094 96.871094 147.371094 102.214844 C 147.371094 107.457031 151.480469 111.566406 156.828125 111.566406 C 162.066406 111.566406 166.28125 107.457031 166.28125 102.214844 C 166.28125 96.871094 162.066406 92.757812 156.828125 92.757812 Z M 212.632812 117.117188 C 203.898438 117.117188 196.910156 110.128906 196.910156 101.496094 C 196.910156 92.859375 203.898438 85.871094 212.632812 85.871094 C 221.164062 85.871094 228.152344 92.859375 228.152344 101.496094 C 228.152344 110.128906 221.164062 117.117188 212.632812 117.117188 Z M 212.632812 92.039062 C 207.289062 92.039062 203.078125 96.355469 203.078125 101.496094 C 203.078125 106.734375 207.289062 111.054688 212.632812 111.054688 C 217.875 111.054688 221.988281 106.734375 221.988281 101.496094 C 221.988281 96.148438 217.773438 92.039062 212.632812 92.039062 Z M 183.546875 135.824219 C 177.691406 135.824219 172.550781 133.046875 169.671875 130.582031 C 168.335938 129.449219 168.234375 127.394531 169.367188 126.265625 C 170.496094 125.03125 172.347656 124.824219 173.683594 126.058594 C 174.605469 126.878906 183.546875 133.972656 192.078125 126.160156 C 193.3125 125.03125 195.164062 125.03125 196.5 126.265625 C 197.628906 127.601562 197.628906 129.449219 196.394531 130.683594 C 192.078125 134.382812 187.660156 135.824219 183.546875 135.824219 Z M 183.546875 135.824219 " fill-opacity="1" fill-rule="evenodd"/></g><g clip-path="url(#238e6d35fd)"><path fill="#ffffff" d="M 111.808594 131.402344 L 110.578125 131.402344 C 103.175781 131.402344 97.011719 125.339844 97.011719 117.835938 L 97.011719 96.871094 C 97.011719 89.367188 103.175781 83.199219 110.578125 83.199219 L 112.015625 83.199219 C 111.914062 84.332031 111.808594 85.5625 111.808594 86.796875 Z M 111.808594 131.402344 " fill-opacity="1" fill-rule="evenodd"/></g><g clip-path="url(#70495219fd)"><path fill="#ffffff" d="M 258.679688 131.402344 L 257.445312 131.402344 L 257.445312 86.796875 C 257.445312 85.460938 257.34375 84.226562 257.238281 83.097656 L 258.679688 83.097656 C 266.285156 83.097656 272.453125 89.160156 272.453125 96.765625 L 272.453125 117.835938 C 272.453125 125.441406 266.285156 131.402344 258.679688 131.402344 Z M 258.679688 131.402344 " fill-opacity="1" fill-rule="evenodd"/></g><g fill="#ffffff" fill-opacity="1"><g transform="translate(41.512084, 236.191391)"><g><path d="M 26.390625 0 L 15.796875 0 L 0.796875 -44.390625 L 10.109375 -44.390625 L 20.890625 -11.296875 L 21.65625 -11.296875 L 32.28125 -44.390625 L 41.359375 -44.390625 Z M 26.390625 0 "/></g></g></g><g fill="#ffffff" fill-opacity="1"><g transform="translate(83.653393, 236.191391)"><g><path d="M 13.0625 0.640625 C 10.914062 0.640625 9.050781 0.242188 7.46875 -0.546875 C 5.882812 -1.335938 4.664062 -2.492188 3.8125 -4.015625 C 2.96875 -5.546875 2.546875 -7.382812 2.546875 -9.53125 C 2.546875 -11.519531 2.96875 -13.1875 3.8125 -14.53125 C 4.664062 -15.875 5.984375 -16.972656 7.765625 -17.828125 C 9.554688 -18.691406 11.882812 -19.359375 14.75 -19.828125 C 16.757812 -20.148438 18.285156 -20.503906 19.328125 -20.890625 C 20.367188 -21.273438 21.070312 -21.707031 21.4375 -22.1875 C 21.800781 -22.675781 21.984375 -23.296875 21.984375 -24.046875 C 21.984375 -25.117188 21.609375 -25.9375 20.859375 -26.5 C 20.109375 -27.070312 18.863281 -27.359375 17.125 -27.359375 C 15.257812 -27.359375 13.488281 -26.941406 11.8125 -26.109375 C 10.132812 -25.285156 8.675781 -24.191406 7.4375 -22.828125 L 6.828125 -22.828125 L 3.3125 -28.140625 C 5.007812 -30.023438 7.082031 -31.492188 9.53125 -32.546875 C 11.976562 -33.597656 14.648438 -34.125 17.546875 -34.125 C 21.984375 -34.125 25.191406 -33.179688 27.171875 -31.296875 C 29.160156 -29.421875 30.15625 -26.753906 30.15625 -23.296875 L 30.15625 -8.75 C 30.15625 -7.25 30.8125 -6.5 32.125 -6.5 C 32.632812 -6.5 33.128906 -6.585938 33.609375 -6.765625 L 34.046875 -6.65625 L 34.640625 -0.796875 C 34.179688 -0.484375 33.535156 -0.226562 32.703125 -0.03125 C 31.867188 0.15625 30.957031 0.25 29.96875 0.25 C 27.96875 0.25 26.40625 -0.132812 25.28125 -0.90625 C 24.15625 -1.675781 23.347656 -2.882812 22.859375 -4.53125 L 22.234375 -4.578125 C 20.585938 -1.097656 17.53125 0.640625 13.0625 0.640625 Z M 15.734375 -5.640625 C 17.671875 -5.640625 19.222656 -6.289062 20.390625 -7.59375 C 21.554688 -8.90625 22.140625 -10.726562 22.140625 -13.0625 L 22.140625 -16.453125 L 21.5625 -16.578125 C 21.050781 -16.171875 20.382812 -15.832031 19.5625 -15.5625 C 18.75 -15.289062 17.570312 -15.019531 16.03125 -14.75 C 14.207031 -14.445312 12.894531 -13.925781 12.09375 -13.1875 C 11.300781 -12.445312 10.90625 -11.398438 10.90625 -10.046875 C 10.90625 -8.609375 11.328125 -7.515625 12.171875 -6.765625 C 13.023438 -6.015625 14.210938 -5.640625 15.734375 -5.640625 Z M 15.734375 -5.640625 "/></g></g></g><g fill="#ffffff" fill-opacity="1"><g transform="translate(118.963438, 236.191391)"><g><path d="M 4.828125 0 L 4.828125 -33.5 L 12.90625 -33.5 L 12.90625 -28.578125 L 13.546875 -28.421875 C 15.628906 -32.222656 19.007812 -34.125 23.6875 -34.125 C 27.550781 -34.125 30.390625 -33.070312 32.203125 -30.96875 C 34.015625 -28.863281 34.921875 -25.796875 34.921875 -21.765625 L 34.921875 0 L 26.515625 0 L 26.515625 -20.734375 C 26.515625 -22.960938 26.066406 -24.566406 25.171875 -25.546875 C 24.285156 -26.535156 22.859375 -27.03125 20.890625 -27.03125 C 18.484375 -27.03125 16.601562 -26.25 15.25 -24.6875 C 13.90625 -23.125 13.234375 -20.675781 13.234375 -17.34375 L 13.234375 0 Z M 4.828125 0 "/></g></g></g><g fill="#ffffff" fill-opacity="1"><g transform="translate(158.190074, 236.191391)"><g><path d="M 17.375 14.203125 C 11.84375 14.203125 7.757812 13.394531 5.125 11.78125 C 2.5 10.164062 1.1875 7.910156 1.1875 5.015625 C 1.1875 3.253906 1.75 1.8125 2.875 0.6875 C 4 -0.4375 5.613281 -1.191406 7.71875 -1.578125 L 7.71875 -2.21875 C 6.582031 -2.90625 5.765625 -3.664062 5.265625 -4.5 C 4.773438 -5.34375 4.53125 -6.320312 4.53125 -7.4375 C 4.53125 -10.132812 6.28125 -11.945312 9.78125 -12.875 L 9.78125 -13.515625 C 7.976562 -14.546875 6.617188 -15.820312 5.703125 -17.34375 C 4.796875 -18.875 4.34375 -20.722656 4.34375 -22.890625 C 4.34375 -25.117188 4.851562 -27.078125 5.875 -28.765625 C 6.894531 -30.460938 8.390625 -31.78125 10.359375 -32.71875 C 12.335938 -33.65625 14.703125 -34.125 17.453125 -34.125 C 20.253906 -34.125 22.484375 -33.640625 24.140625 -32.671875 C 25.171875 -34.171875 25.769531 -35.898438 25.9375 -37.859375 L 26.5625 -38.265625 L 32.609375 -36.765625 C 32.429688 -35.171875 31.96875 -33.832031 31.21875 -32.75 C 30.46875 -31.664062 29.300781 -30.695312 27.71875 -29.84375 L 27.71875 -29.1875 C 29.601562 -27.519531 30.546875 -25.203125 30.546875 -22.234375 C 30.546875 -20.160156 30.03125 -18.300781 29 -16.65625 C 27.96875 -15.019531 26.460938 -13.726562 24.484375 -12.78125 C 22.515625 -11.832031 20.171875 -11.359375 17.453125 -11.359375 L 16.1875 -11.390625 C 15.375 -11.429688 14.804688 -11.453125 14.484375 -11.453125 C 13.710938 -11.453125 13.109375 -11.242188 12.671875 -10.828125 C 12.242188 -10.410156 12.03125 -9.878906 12.03125 -9.234375 C 12.03125 -8.523438 12.3125 -7.972656 12.875 -7.578125 C 13.4375 -7.179688 14.265625 -6.960938 15.359375 -6.921875 L 22.859375 -6.65625 C 30.273438 -6.425781 33.984375 -3.234375 33.984375 2.921875 C 33.984375 5.085938 33.429688 7.015625 32.328125 8.703125 C 31.222656 10.390625 29.4375 11.726562 26.96875 12.71875 C 24.5 13.707031 21.300781 14.203125 17.375 14.203125 Z M 17.453125 -17.25 C 19.078125 -17.25 20.34375 -17.722656 21.25 -18.671875 C 22.164062 -19.628906 22.625 -20.988281 22.625 -22.75 C 22.625 -24.507812 22.164062 -25.859375 21.25 -26.796875 C 20.34375 -27.734375 19.078125 -28.203125 17.453125 -28.203125 C 15.816406 -28.203125 14.550781 -27.734375 13.65625 -26.796875 C 12.769531 -25.859375 12.328125 -24.507812 12.328125 -22.75 C 12.328125 -20.96875 12.769531 -19.601562 13.65625 -18.65625 C 14.550781 -17.71875 15.816406 -17.25 17.453125 -17.25 Z M 17.375 8.109375 C 20.25 8.109375 22.335938 7.703125 23.640625 6.890625 C 24.941406 6.078125 25.59375 5.023438 25.59375 3.734375 C 25.59375 2.679688 25.257812 1.90625 24.59375 1.40625 C 23.925781 0.914062 22.863281 0.648438 21.40625 0.609375 L 14.78125 0.296875 C 14.5625 0.296875 14.351562 0.285156 14.15625 0.265625 C 13.96875 0.253906 13.785156 0.25 13.609375 0.25 C 12.191406 0.25 11.113281 0.550781 10.375 1.15625 C 9.632812 1.757812 9.265625 2.597656 9.265625 3.671875 C 9.265625 5.085938 9.941406 6.179688 11.296875 6.953125 C 12.648438 7.722656 14.675781 8.109375 17.375 8.109375 Z M 17.375 8.109375 "/></g></g></g><g fill="#ffffff" fill-opacity="1"><g transform="translate(193.01434, 236.191391)"><g><path d="M 15.328125 0.640625 C 11.566406 0.640625 8.789062 -0.382812 7 -2.4375 C 5.207031 -4.5 4.3125 -7.453125 4.3125 -11.296875 L 4.3125 -33.5 L 12.71875 -33.5 L 12.71875 -12.359375 C 12.71875 -10.316406 13.15625 -8.820312 14.03125 -7.875 C 14.914062 -6.9375 16.28125 -6.46875 18.125 -6.46875 C 20.457031 -6.46875 22.269531 -7.226562 23.5625 -8.75 C 24.851562 -10.28125 25.5 -12.6875 25.5 -15.96875 L 25.5 -33.5 L 33.921875 -33.5 L 33.921875 0 L 25.84375 0 L 25.84375 -4.921875 L 25.203125 -5.078125 C 24.128906 -3.148438 22.816406 -1.710938 21.265625 -0.765625 C 19.722656 0.171875 17.742188 0.640625 15.328125 0.640625 Z M 15.328125 0.640625 "/></g></g></g><g fill="#ffffff" fill-opacity="1"><g transform="translate(231.755198, 236.191391)"><g><path d="M 13.0625 0.640625 C 10.914062 0.640625 9.050781 0.242188 7.46875 -0.546875 C 5.882812 -1.335938 4.664062 -2.492188 3.8125 -4.015625 C 2.96875 -5.546875 2.546875 -7.382812 2.546875 -9.53125 C 2.546875 -11.519531 2.96875 -13.1875 3.8125 -14.53125 C 4.664062 -15.875 5.984375 -16.972656 7.765625 -17.828125 C 9.554688 -18.691406 11.882812 -19.359375 14.75 -19.828125 C 16.757812 -20.148438 18.285156 -20.503906 19.328125 -20.890625 C 20.367188 -21.273438 21.070312 -21.707031 21.4375 -22.1875 C 21.800781 -22.675781 21.984375 -23.296875 21.984375 -24.046875 C 21.984375 -25.117188 21.609375 -25.9375 20.859375 -26.5 C 20.109375 -27.070312 18.863281 -27.359375 17.125 -27.359375 C 15.257812 -27.359375 13.488281 -26.941406 11.8125 -26.109375 C 10.132812 -25.285156 8.675781 -24.191406 7.4375 -22.828125 L 6.828125 -22.828125 L 3.3125 -28.140625 C 5.007812 -30.023438 7.082031 -31.492188 9.53125 -32.546875 C 11.976562 -33.597656 14.648438 -34.125 17.546875 -34.125 C 21.984375 -34.125 25.191406 -33.179688 27.171875 -31.296875 C 29.160156 -29.421875 30.15625 -26.753906 30.15625 -23.296875 L 30.15625 -8.75 C 30.15625 -7.25 30.8125 -6.5 32.125 -6.5 C 32.632812 -6.5 33.128906 -6.585938 33.609375 -6.765625 L 34.046875 -6.65625 L 34.640625 -0.796875 C 34.179688 -0.484375 33.535156 -0.226562 32.703125 -0.03125 C 31.867188 0.15625 30.957031 0.25 29.96875 0.25 C 27.96875 0.25 26.40625 -0.132812 25.28125 -0.90625 C 24.15625 -1.675781 23.347656 -2.882812 22.859375 -4.53125 L 22.234375 -4.578125 C 20.585938 -1.097656 17.53125 0.640625 13.0625 0.640625 Z M 15.734375 -5.640625 C 17.671875 -5.640625 19.222656 -6.289062 20.390625 -7.59375 C 21.554688 -8.90625 22.140625 -10.726562 22.140625 -13.0625 L 22.140625 -16.453125 L 21.5625 -16.578125 C 21.050781 -16.171875 20.382812 -15.832031 19.5625 -15.5625 C 18.75 -15.289062 17.570312 -15.019531 16.03125 -14.75 C 14.207031 -14.445312 12.894531 -13.925781 12.09375 -13.1875 C 11.300781 -12.445312 10.90625 -11.398438 10.90625 -10.046875 C 10.90625 -8.609375 11.328125 -7.515625 12.171875 -6.765625 C 13.023438 -6.015625 14.210938 -5.640625 15.734375 -5.640625 Z M 15.734375 -5.640625 "/></g></g></g><g fill="#ffffff" fill-opacity="1"><g transform="translate(267.065231, 236.191391)"><g><path d="M 4.828125 0 L 4.828125 -33.5 L 13 -33.5 L 13 -28.515625 L 13.640625 -28.390625 C 14.441406 -30.253906 15.5 -31.617188 16.8125 -32.484375 C 18.132812 -33.359375 19.738281 -33.796875 21.625 -33.796875 C 23.519531 -33.796875 24.96875 -33.472656 25.96875 -32.828125 L 24.53125 -25.5625 L 23.890625 -25.453125 C 23.347656 -25.671875 22.820312 -25.828125 22.3125 -25.921875 C 21.8125 -26.023438 21.195312 -26.078125 20.46875 -26.078125 C 18.113281 -26.078125 16.316406 -25.253906 15.078125 -23.609375 C 13.847656 -21.960938 13.234375 -19.316406 13.234375 -15.671875 L 13.234375 0 Z M 4.828125 0 "/></g></g></g><g fill="#ffffff" fill-opacity="1"><g transform="translate(293.327635, 236.191391)"><g><path d="M 16.546875 0.640625 C 13.898438 0.640625 11.554688 0 9.515625 -1.28125 C 7.484375 -2.570312 5.890625 -4.515625 4.734375 -7.109375 C 3.578125 -9.710938 3 -12.921875 3 -16.734375 C 3 -20.554688 3.59375 -23.769531 4.78125 -26.375 C 5.96875 -28.976562 7.609375 -30.921875 9.703125 -32.203125 C 11.796875 -33.484375 14.21875 -34.125 16.96875 -34.125 C 19.0625 -34.125 20.867188 -33.765625 22.390625 -33.046875 C 23.921875 -32.328125 25.210938 -31.210938 26.265625 -29.703125 L 26.90625 -29.84375 L 26.90625 -46.9375 L 35.3125 -46.9375 L 35.3125 0 L 26.90625 0 L 26.90625 -4.34375 L 26.265625 -4.46875 C 25.335938 -2.882812 24.0625 -1.632812 22.4375 -0.71875 C 20.820312 0.1875 18.859375 0.640625 16.546875 0.640625 Z M 19.28125 -6.5 C 21.644531 -6.5 23.515625 -7.34375 24.890625 -9.03125 C 26.273438 -10.71875 26.96875 -13.285156 26.96875 -16.734375 C 26.96875 -20.171875 26.273438 -22.738281 24.890625 -24.4375 C 23.515625 -26.144531 21.644531 -27 19.28125 -27 C 16.8125 -27 14.921875 -26.171875 13.609375 -24.515625 C 12.304688 -22.867188 11.65625 -20.273438 11.65625 -16.734375 C 11.65625 -13.210938 12.304688 -10.625 13.609375 -8.96875 C 14.921875 -7.320312 16.8125 -6.5 19.28125 -6.5 Z M 19.28125 -6.5 "/></g></g></g><g fill="#ffffff" fill-opacity="1"><g transform="translate(101.782666, 297.518066)"><g><path d="M 21.171875 -26.40625 L 21.171875 -22.015625 L 13.546875 -22.015625 L 13.546875 0 L 8.34375 0 L 8.34375 -22.015625 L 0.71875 -22.015625 L 0.71875 -26.40625 Z M 21.171875 -26.40625 "/></g></g></g><g fill="#ffffff" fill-opacity="1"><g transform="translate(123.676837, 297.518066)"><g><path d="M 19.6875 -8.828125 L 6.890625 -8.828125 C 7.023438 -7.097656 7.515625 -5.835938 8.359375 -5.046875 C 9.203125 -4.253906 10.351562 -3.859375 11.8125 -3.859375 C 12.957031 -3.859375 13.882812 -4.070312 14.59375 -4.5 C 15.300781 -4.9375 15.875 -5.585938 16.3125 -6.453125 L 16.6875 -6.453125 L 20.015625 -4.3125 C 19.367188 -2.914062 18.390625 -1.785156 17.078125 -0.921875 C 15.765625 -0.0546875 14.007812 0.375 11.8125 0.375 C 9.75 0.375 7.96875 -0.015625 6.46875 -0.796875 C 4.976562 -1.578125 3.820312 -2.738281 3 -4.28125 C 2.1875 -5.832031 1.78125 -7.722656 1.78125 -9.953125 C 1.78125 -12.210938 2.207031 -14.117188 3.0625 -15.671875 C 3.925781 -17.234375 5.082031 -18.394531 6.53125 -19.15625 C 7.988281 -19.925781 9.628906 -20.3125 11.453125 -20.3125 C 14.273438 -20.3125 16.4375 -19.5625 17.9375 -18.0625 C 19.4375 -16.570312 20.1875 -14.378906 20.1875 -11.484375 C 20.1875 -10.441406 20.148438 -9.628906 20.078125 -9.046875 Z M 15.390625 -12.0625 C 15.347656 -13.582031 14.992188 -14.6875 14.328125 -15.375 C 13.671875 -16.070312 12.710938 -16.421875 11.453125 -16.421875 C 8.921875 -16.421875 7.429688 -14.96875 6.984375 -12.0625 Z M 15.390625 -12.0625 "/></g></g></g><g fill="#ffffff" fill-opacity="1"><g transform="translate(145.336175, 297.518066)"><g><path d="M 11.609375 0.375 C 9.679688 0.375 7.976562 -0.0234375 6.5 -0.828125 C 5.019531 -1.628906 3.863281 -2.804688 3.03125 -4.359375 C 2.195312 -5.910156 1.78125 -7.773438 1.78125 -9.953125 C 1.78125 -12.148438 2.195312 -14.023438 3.03125 -15.578125 C 3.863281 -17.128906 5.015625 -18.304688 6.484375 -19.109375 C 7.953125 -19.910156 9.632812 -20.3125 11.53125 -20.3125 C 15.726562 -20.3125 18.421875 -18.785156 19.609375 -15.734375 L 16.171875 -13.28125 L 15.796875 -13.28125 C 15.378906 -14.21875 14.84375 -14.914062 14.1875 -15.375 C 13.53125 -15.832031 12.644531 -16.0625 11.53125 -16.0625 C 10.082031 -16.0625 8.953125 -15.5625 8.140625 -14.5625 C 7.335938 -13.5625 6.9375 -12.023438 6.9375 -9.953125 C 6.9375 -7.910156 7.34375 -6.382812 8.15625 -5.375 C 8.976562 -4.363281 10.128906 -3.859375 11.609375 -3.859375 C 12.703125 -3.859375 13.625 -4.148438 14.375 -4.734375 C 15.125 -5.328125 15.660156 -6.171875 15.984375 -7.265625 L 16.375 -7.296875 L 19.921875 -5.34375 C 19.421875 -3.65625 18.484375 -2.28125 17.109375 -1.21875 C 15.742188 -0.15625 13.910156 0.375 11.609375 0.375 Z M 11.609375 0.375 "/></g></g></g><g fill="#ffffff" fill-opacity="1"><g transform="translate(165.875515, 297.518066)"><g/></g></g><g fill="#ffffff" fill-opacity="1"><g transform="translate(174.600673, 297.518066)"><g><path d="M 11.703125 0.375 C 9.878906 0.375 8.25 0.148438 6.8125 -0.296875 C 5.382812 -0.742188 4.195312 -1.335938 3.25 -2.078125 C 2.300781 -2.816406 1.570312 -3.625 1.0625 -4.5 L 3.9375 -8 L 4.390625 -8 C 5.179688 -6.820312 6.1875 -5.882812 7.40625 -5.1875 C 8.632812 -4.488281 10.066406 -4.140625 11.703125 -4.140625 C 13.097656 -4.140625 14.148438 -4.429688 14.859375 -5.015625 C 15.578125 -5.609375 15.9375 -6.425781 15.9375 -7.46875 C 15.9375 -8.09375 15.820312 -8.613281 15.59375 -9.03125 C 15.363281 -9.457031 14.984375 -9.816406 14.453125 -10.109375 C 13.921875 -10.410156 13.203125 -10.671875 12.296875 -10.890625 L 8.90625 -11.671875 C 6.53125 -12.210938 4.757812 -13.113281 3.59375 -14.375 C 2.4375 -15.632812 1.859375 -17.269531 1.859375 -19.28125 C 1.859375 -20.769531 2.226562 -22.078125 2.96875 -23.203125 C 3.71875 -24.335938 4.804688 -25.21875 6.234375 -25.84375 C 7.671875 -26.476562 9.378906 -26.796875 11.359375 -26.796875 C 13.398438 -26.796875 15.144531 -26.523438 16.59375 -25.984375 C 18.039062 -25.453125 19.265625 -24.628906 20.265625 -23.515625 L 17.6875 -19.984375 L 17.234375 -19.984375 C 16.484375 -20.765625 15.625 -21.347656 14.65625 -21.734375 C 13.695312 -22.128906 12.597656 -22.328125 11.359375 -22.328125 C 9.929688 -22.328125 8.84375 -22.070312 8.09375 -21.5625 C 7.34375 -21.0625 6.96875 -20.363281 6.96875 -19.46875 C 6.96875 -18.644531 7.226562 -17.984375 7.75 -17.484375 C 8.28125 -16.992188 9.191406 -16.609375 10.484375 -16.328125 L 13.953125 -15.609375 C 16.515625 -15.066406 18.375 -14.144531 19.53125 -12.84375 C 20.6875 -11.550781 21.265625 -9.863281 21.265625 -7.78125 C 21.265625 -6.132812 20.90625 -4.695312 20.1875 -3.46875 C 19.476562 -2.25 18.40625 -1.300781 16.96875 -0.625 C 15.539062 0.0390625 13.785156 0.375 11.703125 0.375 Z M 11.703125 0.375 "/></g></g></g><g fill="#ffffff" fill-opacity="1"><g transform="translate(197.289682, 297.518066)"><g><path d="M 13.75 -4.75 L 15.046875 -1.046875 C 14.503906 -0.597656 13.820312 -0.25 13 0 C 12.1875 0.25 11.257812 0.375 10.21875 0.375 C 8.0625 0.375 6.421875 -0.207031 5.296875 -1.375 C 4.179688 -2.550781 3.625 -4.257812 3.625 -6.5 L 3.625 -15.96875 L 0.59375 -15.96875 L 0.59375 -19.953125 L 3.625 -19.953125 L 3.625 -23.828125 L 8.640625 -24.640625 L 8.640625 -19.953125 L 14.296875 -19.953125 L 14.296875 -15.96875 L 8.640625 -15.96875 L 8.640625 -6.859375 C 8.640625 -5.878906 8.84375 -5.160156 9.25 -4.703125 C 9.65625 -4.253906 10.25 -4.03125 11.03125 -4.03125 C 11.925781 -4.03125 12.707031 -4.269531 13.375 -4.75 Z M 13.75 -4.75 "/></g></g></g><g fill="#ffffff" fill-opacity="1"><g transform="translate(212.770962, 297.518066)"><g><path d="M 11.578125 0.375 C 9.628906 0.375 7.914062 -0.0234375 6.4375 -0.828125 C 4.96875 -1.628906 3.820312 -2.800781 3 -4.34375 C 2.1875 -5.894531 1.78125 -7.765625 1.78125 -9.953125 C 1.78125 -12.148438 2.1875 -14.023438 3 -15.578125 C 3.820312 -17.128906 4.96875 -18.304688 6.4375 -19.109375 C 7.914062 -19.910156 9.628906 -20.3125 11.578125 -20.3125 C 13.523438 -20.3125 15.238281 -19.910156 16.71875 -19.109375 C 18.195312 -18.304688 19.34375 -17.128906 20.15625 -15.578125 C 20.976562 -14.023438 21.390625 -12.148438 21.390625 -9.953125 C 21.390625 -7.765625 20.976562 -5.894531 20.15625 -4.34375 C 19.34375 -2.800781 18.195312 -1.628906 16.71875 -0.828125 C 15.238281 -0.0234375 13.523438 0.375 11.578125 0.375 Z M 11.578125 -3.859375 C 14.671875 -3.859375 16.21875 -5.890625 16.21875 -9.953125 C 16.21875 -12.054688 15.820312 -13.597656 15.03125 -14.578125 C 14.238281 -15.566406 13.085938 -16.0625 11.578125 -16.0625 C 8.484375 -16.0625 6.9375 -14.023438 6.9375 -9.953125 C 6.9375 -5.890625 8.484375 -3.859375 11.578125 -3.859375 Z M 11.578125 -3.859375 "/></g></g></g><g fill="#ffffff" fill-opacity="1"><g transform="translate(235.929648, 297.518066)"><g><path d="M 2.875 0 L 2.875 -19.921875 L 7.734375 -19.921875 L 7.734375 -16.96875 L 8.109375 -16.890625 C 8.585938 -17.992188 9.21875 -18.804688 10 -19.328125 C 10.789062 -19.847656 11.742188 -20.109375 12.859375 -20.109375 C 13.992188 -20.109375 14.859375 -19.914062 15.453125 -19.53125 L 14.59375 -15.21875 L 14.21875 -15.140625 C 13.894531 -15.273438 13.582031 -15.367188 13.28125 -15.421875 C 12.976562 -15.484375 12.609375 -15.515625 12.171875 -15.515625 C 10.773438 -15.515625 9.707031 -15.023438 8.96875 -14.046875 C 8.238281 -13.066406 7.875 -11.492188 7.875 -9.328125 L 7.875 0 Z M 2.875 0 "/></g></g></g><g fill="#ffffff" fill-opacity="1"><g transform="translate(251.555444, 297.518066)"><g><path d="M 19.6875 -8.828125 L 6.890625 -8.828125 C 7.023438 -7.097656 7.515625 -5.835938 8.359375 -5.046875 C 9.203125 -4.253906 10.351562 -3.859375 11.8125 -3.859375 C 12.957031 -3.859375 13.882812 -4.070312 14.59375 -4.5 C 15.300781 -4.9375 15.875 -5.585938 16.3125 -6.453125 L 16.6875 -6.453125 L 20.015625 -4.3125 C 19.367188 -2.914062 18.390625 -1.785156 17.078125 -0.921875 C 15.765625 -0.0546875 14.007812 0.375 11.8125 0.375 C 9.75 0.375 7.96875 -0.015625 6.46875 -0.796875 C 4.976562 -1.578125 3.820312 -2.738281 3 -4.28125 C 2.1875 -5.832031 1.78125 -7.722656 1.78125 -9.953125 C 1.78125 -12.210938 2.207031 -14.117188 3.0625 -15.671875 C 3.925781 -17.234375 5.082031 -18.394531 6.53125 -19.15625 C 7.988281 -19.925781 9.628906 -20.3125 11.453125 -20.3125 C 14.273438 -20.3125 16.4375 -19.5625 17.9375 -18.0625 C 19.4375 -16.570312 20.1875 -14.378906 20.1875 -11.484375 C 20.1875 -10.441406 20.148438 -9.628906 20.078125 -9.046875 Z M 15.390625 -12.0625 C 15.347656 -13.582031 14.992188 -14.6875 14.328125 -15.375 C 13.671875 -16.070312 12.710938 -16.421875 11.453125 -16.421875 C 8.921875 -16.421875 7.429688 -14.96875 6.984375 -12.0625 Z M 15.390625 -12.0625 "/></g></g></g></svg>